<?xml version="1.0" encoding="UTF-8"?><svg id="Layer_1" xmlns="http://www.w3.org/2000/svg" viewBox="0 0 512 512"><polygon points="463.58 294.4 481.11 287.3 405.68 95.76 388.15 102.86 463.58 294.4" style="fill:#18073d;"/><rect x="37.52" y="323.4" width="18.92" height="37.84" transform="translate(-125.09 42.68) rotate(-22.05)" style="fill:#18073d;"/><path d="M261.4,356.53c4.84,4.23,13.18,9.89,23.21,9.83,2.93-.02,6.57-.56,10.48-2.33.1-.05.2-.11.31-.16l.65.99c2.33,3.55,6.87,4.78,10.62,3.07,1.1-.5,2.14-1.25,3.03-2.29,2.48-2.9,2.5-7.18.4-10.36l-1.79-2.72c5.06-7.38,5.73-15.32,4.07-22.71,1.04.06,2.09.08,3.16.02,2.89-.16,5.66-.81,8.29-1.88l.92,1.4c2.33,3.55,6.87,4.78,10.62,3.07,1.09-.5,2.13-1.25,3.01-2.28,2.49-2.91,2.5-7.21.4-10.4l-1.77-2.69c5.08-7.38,5.75-15.31,4.09-22.71,1.04.06,2.08.08,3.15.02,2.89-.16,5.66-.81,8.29-1.88l.92,1.39c2.33,3.55,6.87,4.78,10.61,3.07,1.3-.59,2.52-1.54,3.49-2.91,2.04-2.89,1.88-6.81-.07-9.77l-1.77-2.69c11.93-17.34-.55-38.18-10.39-48.25-41.67-47.52-87.04-70.71-147.16-71.6l-15.62-38.57-17.53,7.1,18.65,46.05c.25.85.56,1.71,1.04,2.56,59.77-1.15,107.48,19.57,147.99,65.84.1.12.23.25.33.36.17.17,16.58,17.51,7.99,27.88-3.1,3.74-5.86,4.32-7.68,4.42-6.53.39-14.08-5.33-16.42-7.55-.12-.12-.27-.2-.4-.31-3.82-3.4-7.8-6.67-11.98-9.74-3.56-2.62-8.73-2.33-11.66.98-3.38,3.81-2.69,9.6,1.33,12.53,3.91,2.86,7.63,5.91,11.19,9.08,2.2,2.33,14.87,16.46,6.92,26.06-3.09,3.74-5.86,4.31-7.68,4.42-6.26.38-13.41-4.84-16.05-7.22-4.06-4.19-8.09-7.74-13.97-12.06-3.6-2.65-8.81-2.46-11.78.88-3.39,3.81-2.7,9.61,1.32,12.54,5.09,3.72,8.47,6.64,11.95,10.21.09.09.15.2.24.29.16.16,15.88,15.97,7.25,26.44-4.4,5.34-7.9,5.38-9.05,5.39-6.06.07-12.74-6.08-14.67-8.31-21.93-25.05-51.33-38.25-79.91-46.95-24.59-7.48-66.75-17.23-110.22-6.08-7.24,1.86-38.19,15.69-38.19,15.69l7.1,17.53,25.58-10.36c12.94-5.24,26.73-8.14,40.69-8.28,17.67-.18,40.77,1.07,64.3,6.57l-115.56,46.81-.81.33,21.99,54.3,17.4-7.49-14.76-36.37,120.93-48.25c13.63,5.64,26.66,13.17,38.07,23.2l-144.24,61.42,7.58,17.81,34.33-13.9,13.55,33.44,17.53-7.1-13.81-34.1,99.97-42.72Z" style="fill:#18073d;"/><polygon points="182.34 450.88 427.57 350.83 420.55 333.5 175.24 433.35 182.34 450.88" style="fill:#18073d;"/><polygon points="463.58 294.4 413.44 315.97 420.55 333.5 470.29 311.69 463.58 294.4" style="fill:#18073d;"/><polygon points="335.49 123.53 388.09 102.23 388.15 102.15 381.06 84.66 328.39 106 335.49 123.53" style="fill:#18073d;"/><polygon points="222.63 91.81 228.53 106.39 244.39 99.97 251.22 116.85 286.6 102.52 279.5 84.98 245.52 98.75 238.68 81.87 232.77 67.29 198.28 81.26 205.38 98.79 222.63 91.81" style="fill:#18073d;"/><rect x="288.45" y="94.78" width="38.17" height="18.92" transform="translate(-16.64 123.09) rotate(-22.05)" style="fill:#18073d;"/><polygon points="157.46 137.39 174.99 130.28 161.02 95.8 198.09 80.79 190.36 61.71 153.07 76.82 160.59 95.39 143.28 102.4 157.46 137.39" style="fill:#18073d;"/></svg>