<?xml version="1.0" encoding="UTF-8"?><svg id="Layer_1" xmlns="http://www.w3.org/2000/svg" viewBox="0 0 862.28 120"><path d="M219,94.67c-5.34,0-9.89-.96-13.67-2.89-3.78-1.92-6.78-4.74-9-8.44h-4.67v10h-11.56v-11.11h5.56V0h10.44v38h.44c2.07-4.15,5.13-7.3,9.17-9.44,4.04-2.15,8.76-3.22,14.17-3.22,6.29,0,11.72,1.39,16.28,4.16,4.56,2.78,8.05,6.76,10.5,11.95,2.44,5.19,3.67,11.37,3.67,18.56s-1.24,13.37-3.72,18.56c-2.48,5.19-6.06,9.16-10.72,11.94-4.67,2.78-10.3,4.17-16.89,4.17ZM217.55,85.78c7.04,0,12.52-2.26,16.45-6.78,3.93-4.52,5.89-10.85,5.89-19s-1.96-14.48-5.89-19c-3.93-4.52-9.41-6.78-16.45-6.78-6.45,0-11.63,1.85-15.56,5.56-3.93,3.71-5.89,8.63-5.89,14.78v10.89c0,6.15,1.96,11.08,5.89,14.78,3.93,3.71,9.11,5.56,15.56,5.56Z" style="fill:#fff;"/><path d="M292.33,94.56c-8.3,0-14.89-2.37-19.78-7.11-4.89-4.74-7.33-11.11-7.33-19.11V26.67h10.44v39.44c0,6.3,1.67,11.09,5,14.39,3.33,3.3,8.15,4.94,14.44,4.94s11.74-1.7,15.44-5.11,5.56-8.15,5.56-14.22V26.67h10.44v55.55h5.56v11.11h-11.56v-10h-4.67c-2.3,3.63-5.46,6.41-9.5,8.33-4.04,1.92-8.72,2.89-14.06,2.89Z" style="fill:#fff;"/><path d="M353.89,16.67c-1.85,0-3.43-.65-4.72-1.94-1.3-1.29-1.95-2.87-1.95-4.72s.65-3.43,1.95-4.72,2.87-1.94,4.72-1.94,3.43.65,4.72,1.94c1.29,1.3,1.95,2.87,1.95,4.72s-.65,3.43-1.95,4.72c-1.29,1.3-2.87,1.94-4.72,1.94ZM348.66,93.33V26.67h10.44v66.67h-10.44Z" style="fill:#fff;"/><path d="M379.77,93.33V0h10.44v93.33h-10.44Z" style="fill:#fff;"/><path d="M437.66,94.67c-6.52,0-12.13-1.39-16.83-4.17-4.7-2.78-8.3-6.76-10.78-11.94-2.48-5.19-3.72-11.37-3.72-18.56s1.22-13.37,3.67-18.56c2.45-5.18,5.94-9.17,10.5-11.95,4.56-2.78,9.98-4.16,16.28-4.16,5.48,0,10.22,1.07,14.22,3.22,4,2.15,7.04,5.29,9.11,9.44h.44V0h10.44v82.22h5.56v11.11h-11.56v-10h-4.67c-2.22,3.71-5.22,6.52-9,8.44-3.78,1.93-8.33,2.89-13.67,2.89ZM439.11,85.78c6.45,0,11.63-1.85,15.56-5.56,3.93-3.7,5.89-8.63,5.89-14.78v-10.89c0-6.15-1.96-11.07-5.89-14.78-3.93-3.7-9.11-5.56-15.56-5.56-7.04,0-12.52,2.26-16.45,6.78-3.93,4.52-5.89,10.85-5.89,19s1.96,14.49,5.89,19,9.41,6.78,16.45,6.78Z" style="fill:#fff;"/><path d="M543.18,62.13c0,2.13-1.07,3.6-5.07,3.6-2.53,0-6.94,0-9.74.14,0,6.93.27,13.07.53,17.07.4,5.2.53,7.07.53,8.53,0,2.27-1.33,3.87-3.33,3.87-2.8,0-4.94-1.2-4.94-3.33,0-1.2.13-3.2.13-5.47l-.26-19.87c-6.54.8-13.34,1.74-20.27,3.33-6.53,1.47-9.34,2.8-12.4,2.8-2.27,0-3.33-1.47-3.33-3.47,0-4.4,10-22,14.27-28.41,6.93-10.53,8.67-12.13,16.93-27.34.8-1.47,1.73-2.13,3.2-2.13,2.53,0,4.94,2.4,5.33,3.6,2.4.13,5.2,2.13,5.2,5.07,0,.53-.14,1.6-.4,3.07-.54,3.07-.8,6-.93,9.87-.14,6.67-.27,16.4-.27,25.74,4.13-.53,7.6-.8,10.14-.8,2.67,0,4.67.67,4.67,4.13ZM520.91,59.86c-.13-14.14-.13-30.14.67-39.74-5.73,7.47-21.74,32.8-27.2,44.67,7.87-1.73,17.74-3.6,26.54-4.93Z" style="fill:#fff;"/><path d="M554.95,120V37.78h-5.56v-11.11h11.56v10h4.67c2.22-3.71,5.22-6.52,9-8.45,3.78-1.92,8.33-2.89,13.67-2.89,6.59,0,12.22,1.39,16.89,4.16,4.66,2.78,8.24,6.76,10.72,11.95,2.48,5.19,3.72,11.37,3.72,18.56s-1.22,13.37-3.67,18.56c-2.45,5.19-5.94,9.16-10.5,11.94s-9.98,4.17-16.28,4.17c-5.41,0-10.13-1.09-14.17-3.28s-7.09-5.31-9.17-9.39h-.44v38h-10.44ZM586.84,85.78c7.04,0,12.52-2.26,16.45-6.78,3.93-4.52,5.89-10.85,5.89-19s-1.96-14.48-5.89-19c-3.93-4.52-9.41-6.78-16.45-6.78-6.45,0-11.63,1.85-15.56,5.56-3.93,3.71-5.89,8.63-5.89,14.78v10.89c0,6.15,1.96,11.08,5.89,14.78,3.93,3.71,9.11,5.56,15.56,5.56Z" style="fill:#fff;"/><path d="M654.06,94.56c-7.41,0-13.26-1.87-17.55-5.61-4.3-3.74-6.45-8.57-6.45-14.5,0-6.37,2.09-11.3,6.28-14.78s10.24-5.22,18.17-5.22h24v-3.11c0-11.4-6.11-17.11-18.33-17.11-9.93,0-15.89,3.78-17.89,11.33h-10.67c1.04-6.37,4.13-11.33,9.28-14.89,5.15-3.56,11.68-5.33,19.61-5.33,9.03,0,15.96,2.17,20.78,6.5,4.81,4.33,7.22,10.58,7.22,18.72v31.67h5.11v11.11h-11.56v-10h-4.66c-2.3,3.41-5.48,6.13-9.56,8.17-4.08,2.04-8.67,3.05-13.78,3.05ZM655.39,85.89c4.22,0,8.09-.89,11.61-2.67,3.52-1.78,6.32-4.17,8.39-7.17,2.07-3,3.11-6.32,3.11-9.94v-3.67h-23.22c-10.3,0-15.44,3.85-15.44,11.56,0,3.63,1.39,6.52,4.17,8.66,2.78,2.15,6.57,3.22,11.39,3.22Z" style="fill:#fff;"/><path d="M719.39,93.33l-20.89-66.67h10.89l16.22,54.44h.56l19.22-54.44h11.33l19.34,54.44h.56l16.11-54.44h10.67l-20.78,66.67h-12l-19.44-54.89h-.44l-19.34,54.89h-12Z" style="fill:#fff;"/><path d="M835.28,94.67c-9.04,0-16.18-1.87-21.44-5.61-5.26-3.74-8.15-8.98-8.67-15.72h10.44c.52,4.3,2.4,7.48,5.67,9.56,3.26,2.07,8.04,3.11,14.34,3.11,11.33,0,17-3.63,17-10.89,0-2.96-.87-5.24-2.61-6.83-1.74-1.59-4.69-2.76-8.83-3.5l-14.56-2.67c-12.07-2.22-18.11-8-18.11-17.33,0-6,2.26-10.74,6.78-14.22,4.52-3.48,10.7-5.22,18.56-5.22s14.54,1.78,19.39,5.33c4.85,3.56,7.65,8.52,8.39,14.89h-10.22c-.82-3.93-2.67-6.83-5.56-8.72-2.89-1.89-6.93-2.83-12.11-2.83s-8.78.87-11.45,2.61c-2.67,1.74-4,4.28-4,7.61,0,2.52.87,4.5,2.61,5.94,1.74,1.44,4.57,2.54,8.5,3.28l14.45,2.67c6.37,1.19,11.04,3.26,14,6.22,2.96,2.96,4.44,6.96,4.44,12,0,6.45-2.33,11.45-7,15-4.66,3.56-11.33,5.33-20,5.33Z" style="fill:#fff;"/><polygon points="131.35 70.82 136.68 68.66 113.77 10.48 108.44 12.64 131.35 70.82" style="fill:#fff;"/><rect x="1.95" y="79.62" width="5.75" height="11.49" transform="translate(-31.7 8.06) rotate(-22.05)" style="fill:#fff;"/><path d="M69.94,89.69c1.47,1.29,4,3,7.05,2.98.89,0,2-.17,3.18-.71.03-.01.06-.03.09-.05l.2.3c.71,1.08,2.09,1.45,3.22.93.33-.15.65-.38.92-.7.75-.88.76-2.18.12-3.15l-.54-.83c1.54-2.24,1.74-4.65,1.24-6.9.32.02.63.02.96,0,.88-.05,1.72-.25,2.52-.57l.28.42c.71,1.08,2.09,1.45,3.22.93.33-.15.65-.38.91-.69.76-.88.76-2.19.12-3.16l-.54-.82c1.54-2.24,1.75-4.65,1.24-6.9.31.02.63.02.96,0,.88-.05,1.72-.25,2.52-.57l.28.42c.71,1.08,2.09,1.45,3.22.93.4-.18.77-.47,1.06-.88.62-.88.57-2.07-.02-2.97l-.54-.82c3.62-5.27-.17-11.6-3.16-14.65-12.66-14.43-26.44-21.48-44.7-21.75l-4.74-11.71-5.33,2.16,5.67,13.99c.08.26.17.52.31.78,18.15-.35,32.65,5.94,44.95,20,.03.04.07.08.1.11.05.05,5.04,5.32,2.43,8.47-.94,1.13-1.78,1.31-2.33,1.34-1.98.12-4.28-1.62-4.99-2.29-.04-.04-.08-.06-.12-.1-1.16-1.03-2.37-2.03-3.64-2.96-1.08-.8-2.65-.71-3.54.3-1.03,1.16-.82,2.92.4,3.81,1.19.87,2.32,1.79,3.4,2.76.67.71,4.52,5,2.1,7.92-.94,1.14-1.78,1.31-2.33,1.34-1.9.11-4.07-1.47-4.88-2.19-1.23-1.27-2.46-2.35-4.24-3.66-1.09-.8-2.68-.75-3.58.27-1.03,1.16-.82,2.92.4,3.81,1.55,1.13,2.57,2.02,3.63,3.1.03.03.05.06.07.09.05.05,4.82,4.85,2.2,8.03-1.34,1.62-2.4,1.63-2.75,1.64-1.84.02-3.87-1.85-4.46-2.53-6.66-7.61-15.59-11.62-24.27-14.26-7.47-2.27-20.27-5.23-33.48-1.85-2.2.56-11.6,4.77-11.6,4.77l2.16,5.33,7.77-3.15c3.93-1.59,8.12-2.47,12.36-2.52,5.37-.06,12.38.33,19.53,2l-35.1,14.22-.24.1,6.68,16.49,5.29-2.28-4.48-11.05,36.73-14.65c4.14,1.71,8.1,4,11.56,7.05l-43.81,18.65,2.3,5.41,10.43-4.22,4.11,10.16,5.33-2.16-4.2-10.36,30.37-12.97Z" style="fill:#fff;"/><polygon points="45.93 118.34 120.42 87.96 118.28 82.69 43.78 113.02 45.93 118.34" style="fill:#fff;"/><polygon points="131.35 70.82 116.13 77.37 118.28 82.69 133.39 76.07 131.35 70.82" style="fill:#fff;"/><polygon points="92.45 18.92 108.43 12.45 108.44 12.42 106.29 7.11 90.29 13.59 92.45 18.92" style="fill:#fff;"/><polygon points="58.17 9.28 59.96 13.71 64.78 11.76 66.85 16.89 77.6 12.53 75.44 7.21 65.12 11.39 63.04 6.26 61.25 1.83 50.77 6.08 52.93 11.4 58.17 9.28" style="fill:#fff;"/><rect x="78.16" y="10.19" width="11.59" height="5.75" transform="translate(1.24 32.48) rotate(-22.05)" style="fill:#fff;"/><polygon points="38.38 23.13 43.7 20.97 39.46 10.5 50.72 5.94 48.37 .14 37.04 4.73 39.33 10.37 34.07 12.5 38.38 23.13" style="fill:#fff;"/></svg>