<?xml version="1.0" encoding="UTF-8"?>
<svg id="Layer_1" xmlns="http://www.w3.org/2000/svg" version="1.1" viewBox="0 0 862.3 120">
  <!-- Generator: Adobe Illustrator 30.2.1, SVG Export Plug-In . SVG Version: 2.1.1 Build 1)  -->
  <defs>
    <style>
      .st0 {
        fill: #18073d;
      }

      .st1 {
        fill: #f95905;
      }
    </style>
  </defs>
  <path class="st0" d="M219,94.7c-5.3,0-9.9-1-13.7-2.9-3.8-1.9-6.8-4.7-9-8.4h-4.7v10h-11.6v-11.1h5.6V0h10.4v38h.4c2.1-4.1,5.1-7.3,9.2-9.4,4-2.1,8.8-3.2,14.2-3.2s11.7,1.4,16.3,4.2c4.6,2.8,8.1,6.8,10.5,11.9,2.4,5.2,3.7,11.4,3.7,18.6s-1.2,13.4-3.7,18.6c-2.5,5.2-6.1,9.2-10.7,11.9-4.7,2.8-10.3,4.2-16.9,4.2ZM217.6,85.8c7,0,12.5-2.3,16.4-6.8,3.9-4.5,5.9-10.9,5.9-19s-2-14.5-5.9-19c-3.9-4.5-9.4-6.8-16.4-6.8s-11.6,1.9-15.6,5.6c-3.9,3.7-5.9,8.6-5.9,14.8v10.9c0,6.2,2,11.1,5.9,14.8,3.9,3.7,9.1,5.6,15.6,5.6Z"/>
  <path class="st0" d="M292.3,94.6c-8.3,0-14.9-2.4-19.8-7.1-4.9-4.7-7.3-11.1-7.3-19.1V26.7h10.4v39.4c0,6.3,1.7,11.1,5,14.4,3.3,3.3,8.1,4.9,14.4,4.9s11.7-1.7,15.4-5.1,5.6-8.1,5.6-14.2V26.7h10.4v55.6h5.6v11.1h-11.6v-10h-4.7c-2.3,3.6-5.5,6.4-9.5,8.3-4,1.9-8.7,2.9-14.1,2.9Z"/>
  <path class="st0" d="M353.9,16.7c-1.9,0-3.4-.6-4.7-1.9-1.3-1.3-1.9-2.9-1.9-4.7s.6-3.4,1.9-4.7,2.9-1.9,4.7-1.9,3.4.6,4.7,1.9c1.3,1.3,1.9,2.9,1.9,4.7s-.7,3.4-1.9,4.7c-1.3,1.3-2.9,1.9-4.7,1.9ZM348.7,93.3V26.7h10.4v66.7h-10.4Z"/>
  <path class="st0" d="M379.8,93.3V0h10.4v93.3h-10.4Z"/>
  <path class="st0" d="M437.7,94.7c-6.5,0-12.1-1.4-16.8-4.2-4.7-2.8-8.3-6.8-10.8-11.9-2.5-5.2-3.7-11.4-3.7-18.6s1.2-13.4,3.7-18.6c2.4-5.2,5.9-9.2,10.5-11.9,4.6-2.8,10-4.2,16.3-4.2s10.2,1.1,14.2,3.2c4,2.1,7,5.3,9.1,9.4h.4V0h10.4v82.2h5.6v11.1h-11.6v-10h-4.7c-2.2,3.7-5.2,6.5-9,8.4-3.8,1.9-8.3,2.9-13.7,2.9ZM439.1,85.8c6.4,0,11.6-1.9,15.6-5.6,3.9-3.7,5.9-8.6,5.9-14.8v-10.9c0-6.1-2-11.1-5.9-14.8-3.9-3.7-9.1-5.6-15.6-5.6s-12.5,2.3-16.4,6.8c-3.9,4.5-5.9,10.9-5.9,19s2,14.5,5.9,19,9.4,6.8,16.4,6.8Z"/>
  <path class="st1" d="M543.2,62.1c0,2.1-1.1,3.6-5.1,3.6s-6.9,0-9.7.1c0,6.9.3,13.1.5,17.1.4,5.2.5,7.1.5,8.5,0,2.3-1.3,3.9-3.3,3.9s-4.9-1.2-4.9-3.3.1-3.2.1-5.5l-.3-19.9c-6.5.8-13.3,1.7-20.3,3.3-6.5,1.5-9.3,2.8-12.4,2.8s-3.3-1.5-3.3-3.5c0-4.4,10-22,14.3-28.4,6.9-10.5,8.7-12.1,16.9-27.3.8-1.5,1.7-2.1,3.2-2.1,2.5,0,4.9,2.4,5.3,3.6,2.4.1,5.2,2.1,5.2,5.1s-.1,1.6-.4,3.1c-.5,3.1-.8,6-.9,9.9-.1,6.7-.3,16.4-.3,25.7,4.1-.5,7.6-.8,10.1-.8s4.7.7,4.7,4.1ZM520.9,59.9c-.1-14.1-.1-30.1.7-39.7-5.7,7.5-21.7,32.8-27.2,44.7,7.9-1.7,17.7-3.6,26.5-4.9Z"/>
  <path class="st0" d="M554.9,120V37.8h-5.6v-11.1h11.6v10h4.7c2.2-3.7,5.2-6.5,9-8.4,3.8-1.9,8.3-2.9,13.7-2.9s12.2,1.4,16.9,4.2c4.7,2.8,8.2,6.8,10.7,11.9,2.5,5.2,3.7,11.4,3.7,18.6s-1.2,13.4-3.7,18.6c-2.4,5.2-5.9,9.2-10.5,11.9s-10,4.2-16.3,4.2-10.1-1.1-14.2-3.3-7.1-5.3-9.2-9.4h-.4v38h-10.4ZM586.8,85.8c7,0,12.5-2.3,16.4-6.8,3.9-4.5,5.9-10.9,5.9-19s-2-14.5-5.9-19c-3.9-4.5-9.4-6.8-16.4-6.8s-11.6,1.9-15.6,5.6c-3.9,3.7-5.9,8.6-5.9,14.8v10.9c0,6.2,2,11.1,5.9,14.8,3.9,3.7,9.1,5.6,15.6,5.6Z"/>
  <path class="st0" d="M654.1,94.6c-7.4,0-13.3-1.9-17.6-5.6-4.3-3.7-6.4-8.6-6.4-14.5s2.1-11.3,6.3-14.8,10.2-5.2,18.2-5.2h24v-3.1c0-11.4-6.1-17.1-18.3-17.1s-15.9,3.8-17.9,11.3h-10.7c1-6.4,4.1-11.3,9.3-14.9,5.1-3.6,11.7-5.3,19.6-5.3s16,2.2,20.8,6.5c4.8,4.3,7.2,10.6,7.2,18.7v31.7h5.1v11.1h-11.6v-10h-4.7c-2.3,3.4-5.5,6.1-9.6,8.2-4.1,2-8.7,3.1-13.8,3.1ZM655.4,85.9c4.2,0,8.1-.9,11.6-2.7,3.5-1.8,6.3-4.2,8.4-7.2,2.1-3,3.1-6.3,3.1-9.9v-3.7h-23.2c-10.3,0-15.4,3.9-15.4,11.6s1.4,6.5,4.2,8.7c2.8,2.2,6.6,3.2,11.4,3.2Z"/>
  <path class="st0" d="M719.4,93.3l-20.9-66.7h10.9l16.2,54.4h.6l19.2-54.4h11.3l19.3,54.4h.6l16.1-54.4h10.7l-20.8,66.7h-12l-19.4-54.9h-.4l-19.3,54.9h-12Z"/>
  <path class="st0" d="M835.3,94.7c-9,0-16.2-1.9-21.4-5.6-5.3-3.7-8.1-9-8.7-15.7h10.4c.5,4.3,2.4,7.5,5.7,9.6,3.3,2.1,8,3.1,14.3,3.1,11.3,0,17-3.6,17-10.9s-.9-5.2-2.6-6.8c-1.7-1.6-4.7-2.8-8.8-3.5l-14.6-2.7c-12.1-2.2-18.1-8-18.1-17.3s2.3-10.7,6.8-14.2c4.5-3.5,10.7-5.2,18.6-5.2s14.5,1.8,19.4,5.3c4.8,3.6,7.6,8.5,8.4,14.9h-10.2c-.8-3.9-2.7-6.8-5.6-8.7-2.9-1.9-6.9-2.8-12.1-2.8s-8.8.9-11.4,2.6c-2.7,1.7-4,4.3-4,7.6s.9,4.5,2.6,5.9c1.7,1.4,4.6,2.5,8.5,3.3l14.4,2.7c6.4,1.2,11,3.3,14,6.2,3,3,4.4,7,4.4,12s-2.3,11.4-7,15c-4.7,3.6-11.3,5.3-20,5.3Z"/>
  <g>
    <polygon class="st0" points="131.4 70.8 136.7 68.7 113.8 10.5 108.4 12.6 131.4 70.8"/>
    <rect class="st0" x="1.9" y="79.6" width="5.7" height="11.5" transform="translate(-31.7 8.1) rotate(-22.1)"/>
    <path class="st0" d="M69.9,89.7c1.5,1.3,4,3,7,3,.9,0,2-.2,3.2-.7,0,0,0,0,0,0l.2.3c.7,1.1,2.1,1.5,3.2.9.3-.2.6-.4.9-.7.8-.9.8-2.2.1-3.1l-.5-.8c1.5-2.2,1.7-4.7,1.2-6.9.3,0,.6,0,1,0,.9,0,1.7-.2,2.5-.6l.3.4c.7,1.1,2.1,1.5,3.2.9.3-.2.6-.4.9-.7.8-.9.8-2.2.1-3.2l-.5-.8c1.5-2.2,1.7-4.7,1.2-6.9.3,0,.6,0,1,0,.9,0,1.7-.2,2.5-.6l.3.4c.7,1.1,2.1,1.5,3.2.9.4-.2.8-.5,1.1-.9.6-.9.6-2.1,0-3l-.5-.8c3.6-5.3-.2-11.6-3.2-14.7-12.7-14.4-26.4-21.5-44.7-21.7l-4.7-11.7-5.3,2.2,5.7,14c0,.3.2.5.3.8,18.2-.4,32.6,5.9,44.9,20,0,0,0,0,.1.1,0,0,5,5.3,2.4,8.5-.9,1.1-1.8,1.3-2.3,1.3-2,.1-4.3-1.6-5-2.3,0,0,0,0-.1,0-1.2-1-2.4-2-3.6-3-1.1-.8-2.7-.7-3.5.3-1,1.2-.8,2.9.4,3.8,1.2.9,2.3,1.8,3.4,2.8.7.7,4.5,5,2.1,7.9-.9,1.1-1.8,1.3-2.3,1.3-1.9.1-4.1-1.5-4.9-2.2-1.2-1.3-2.5-2.3-4.2-3.7-1.1-.8-2.7-.7-3.6.3-1,1.2-.8,2.9.4,3.8,1.5,1.1,2.6,2,3.6,3.1,0,0,0,0,0,0,0,0,4.8,4.9,2.2,8-1.3,1.6-2.4,1.6-2.7,1.6-1.8,0-3.9-1.8-4.5-2.5-6.7-7.6-15.6-11.6-24.3-14.3-7.5-2.3-20.3-5.2-33.5-1.8-2.2.6-11.6,4.8-11.6,4.8l2.2,5.3,7.8-3.1c3.9-1.6,8.1-2.5,12.4-2.5,5.4,0,12.4.3,19.5,2l-35.1,14.2h-.2c0,0,6.7,16.6,6.7,16.6l5.3-2.3-4.5-11,36.7-14.7c4.1,1.7,8.1,4,11.6,7l-43.8,18.7,2.3,5.4,10.4-4.2,4.1,10.2,5.3-2.2-4.2-10.4,30.4-13Z"/>
    <polygon class="st0" points="45.9 118.3 120.4 88 118.3 82.7 43.8 113 45.9 118.3"/>
    <polygon class="st0" points="131.4 70.8 116.1 77.4 118.3 82.7 133.4 76.1 131.4 70.8"/>
    <polygon class="st0" points="92.4 18.9 108.4 12.4 108.4 12.4 106.3 7.1 90.3 13.6 92.4 18.9"/>
    <polygon class="st0" points="58.2 9.3 60 13.7 64.8 11.8 66.9 16.9 77.6 12.5 75.4 7.2 65.1 11.4 63 6.3 61.3 1.8 50.8 6.1 52.9 11.4 58.2 9.3"/>
    <rect class="st0" x="78.2" y="10.2" width="11.6" height="5.7" transform="translate(1.2 32.5) rotate(-22.1)"/>
    <polygon class="st0" points="38.4 23.1 43.7 21 39.5 10.5 50.7 5.9 48.4 .1 37 4.7 39.3 10.4 34.1 12.5 38.4 23.1"/>
  </g>
</svg>